<?xml version="1.0"?>
<svg xmlns="http://www.w3.org/2000/svg" style="display:none">
  <symbol id="outline-arrow-down-tray" viewBox="0 0 24 24" fill="none" stroke="currentColor">
    <path stroke-linecap="round" stroke-linejoin="round" d="M3 16.5v2.25A2.25 2.25 0 0 0 5.25 21h13.5A2.25 2.25 0 0 0 21 18.75V16.5M16.5 12 12 16.5m0 0L7.5 12m4.5 4.5V3"/>
  </symbol>
  <symbol id="outline-arrow-up-tray" viewBox="0 0 24 24" fill="none" stroke="currentColor">
    <path stroke-linecap="round" stroke-linejoin="round" d="M3 16.5v2.25A2.25 2.25 0 0 0 5.25 21h13.5A2.25 2.25 0 0 0 21 18.75V16.5m-13.5-9L12 3m0 0 4.5 4.5M12 3v13.5"/>
  </symbol>
  <symbol id="outline-arrow-uturn-left" viewBox="0 0 24 24" fill="none" stroke="currentColor">
    <path stroke-linecap="round" stroke-linejoin="round" d="M9 15 3 9m0 0 6-6M3 9h12a6 6 0 0 1 0 12h-3"/>
  </symbol>
  <symbol id="outline-arrow-uturn-right" viewBox="0 0 24 24" fill="none" stroke="currentColor">
    <path stroke-linecap="round" stroke-linejoin="round" d="m15 15 6-6m0 0-6-6m6 6H9a6 6 0 0 0 0 12h3"/>
  </symbol>
  <symbol id="outline-bars-3-bottom-left" viewBox="0 0 24 24" fill="none" stroke="currentColor">
    <path stroke-linecap="round" stroke-linejoin="round" d="M3.75 6.75h16.5M3.75 12h16.5m-16.5 5.25H12"/>
  </symbol>
  <symbol id="outline-chart-bar" viewBox="0 0 24 24" fill="none" stroke="currentColor">
    <path stroke-linecap="round" stroke-linejoin="round" d="M3 13.125C3 12.504 3.504 12 4.125 12h2.25c.621 0 1.125.504 1.125 1.125v6.75C7.5 20.496 6.996 21 6.375 21h-2.25A1.125 1.125 0 0 1 3 19.875v-6.75ZM9.75 8.625c0-.621.504-1.125 1.125-1.125h2.25c.621 0 1.125.504 1.125 1.125v11.25c0 .621-.504 1.125-1.125 1.125h-2.25a1.125 1.125 0 0 1-1.125-1.125V8.625ZM16.5 4.125c0-.621.504-1.125 1.125-1.125h2.25C20.496 3 21 3.504 21 4.125v15.75c0 .621-.504 1.125-1.125 1.125h-2.25a1.125 1.125 0 0 1-1.125-1.125V4.125Z" />
  </symbol>
  <symbol id="outline-calendar-days" viewBox="0 0 24 24" fill="none" stroke="currentColor">
    <path stroke-linecap="round" stroke-linejoin="round" d="M6.75 3v2.25M17.25 3v2.25M3 18.75V7.5a2.25 2.25 0 0 1 2.25-2.25h13.5A2.25 2.25 0 0 1 21 7.5v11.25m-18 0A2.25 2.25 0 0 0 5.25 21h13.5A2.25 2.25 0 0 0 21 18.75m-18 0v-7.5A2.25 2.25 0 0 1 5.25 9h13.5A2.25 2.25 0 0 1 21 11.25v7.5m-9-6h.008v.008H12v-.008ZM12 15h.008v.008H12V15Zm0 2.25h.008v.008H12v-.008ZM9.75 15h.008v.008H9.75V15Zm0 2.25h.008v.008H9.75v-.008ZM7.5 15h.008v.008H7.5V15Zm0 2.25h.008v.008H7.5v-.008Zm6.75-4.5h.008v.008h-.008v-.008Zm0 2.25h.008v.008h-.008V15Zm0 2.25h.008v.008h-.008v-.008Zm2.25-4.5h.008v.008H16.5v-.008Zm0 2.25h.008v.008H16.5V15Z"/>
  </symbol>
  <symbol id="outline-check" viewBox="0 0 24 24" fill="none" stroke="currentColor">
    <path stroke-linecap="round" stroke-linejoin="round" d="m4.5 12.75 6 6 9-13.5"/>
  </symbol>
  <symbol id="outline-chevron-down" viewBox="0 0 24 24" fill="none" stroke="currentColor">
    <path stroke-linecap="round" stroke-linejoin="round" d="m19.5 8.25-7.5 7.5-7.5-7.5"/>
  </symbol>
  <symbol id="outline-chevron-left" viewBox="0 0 24 24" fill="none" stroke="currentColor">
    <path stroke-linecap="round" stroke-linejoin="round" d="M15.75 19.5 8.25 12l7.5-7.5"/>
  </symbol>
  <symbol id="outline-code-bracket" viewBox="0 0 24 24" fill="none" stroke="currentColor">
    <path stroke-linecap="round" stroke-linejoin="round" d="M17.25 6.75 22.5 12l-5.25 5.25m-10.5 0L1.5 12l5.25-5.25m7.5-3-4.5 16.5"/>
  </symbol>
  <symbol id="outline-clipboard-document" viewBox="0 0 24 24" fill="none" stroke="currentColor">
    <path stroke-linecap="round" stroke-linejoin="round" d="M8.25 7.5V6.108c0-1.135.845-2.098 1.976-2.192.373-.03.748-.057 1.123-.08M15.75 18H18a2.25 2.25 0 0 0 2.25-2.25V6.108c0-1.135-.845-2.098-1.976-2.192a48.424 48.424 0 0 0-1.123-.08M15.75 18.75v-1.875a3.375 3.375 0 0 0-3.375-3.375h-1.5a1.125 1.125 0 0 1-1.125-1.125v-1.5A3.375 3.375 0 0 0 6.375 7.5H5.25m11.9-3.664A2.251 2.251 0 0 0 15 2.25h-1.5a2.251 2.251 0 0 0-2.15 1.586m5.8 0c.065.21.1.433.1.664v.75h-6V4.5c0-.231.035-.454.1-.664M6.75 7.5H4.875c-.621 0-1.125.504-1.125 1.125v12c0 .621.504 1.125 1.125 1.125h9.75c.621 0 1.125-.504 1.125-1.125V16.5a9 9 0 0 0-9-9Z"/>
  </symbol>
  <symbol id="outline-document-duplicate" viewBox="0 0 24 24" fill="none" stroke="currentColor">
    <path stroke-linecap="round" stroke-linejoin="round" d="M15.75 17.25v3.375c0 .621-.504 1.125-1.125 1.125h-9.75a1.125 1.125 0 0 1-1.125-1.125V7.875c0-.621.504-1.125 1.125-1.125H6.75a9.06 9.06 0 0 1 1.5.124m7.5 10.376h3.375c.621 0 1.125-.504 1.125-1.125V11.25c0-4.46-3.243-8.161-7.5-8.876a9.06 9.06 0 0 0-1.5-.124H9.375c-.621 0-1.125.504-1.125 1.125v3.5m7.5 10.375H9.375a1.125 1.125 0 0 1-1.125-1.125v-9.25m12 6.625v-1.875a3.375 3.375 0 0 0-3.375-3.375h-1.5a1.125 1.125 0 0 1-1.125-1.125v-1.5a3.375 3.375 0 0 0-3.375-3.375H9.75"/>
  </symbol>
  <symbol id="outline-ellipsis-vertical" viewBox="0 0 24 24" fill="none" stroke="currentColor">
    <path stroke-linecap="round" stroke-linejoin="round" d="M12 6.75a.75.75 0 1 1 0-1.5.75.75 0 0 1 0 1.5ZM12 12.75a.75.75 0 1 1 0-1.5.75.75 0 0 1 0 1.5ZM12 18.75a.75.75 0 1 1 0-1.5.75.75 0 0 1 0 1.5Z"/>
  </symbol>
  <symbol id="outline-envelope" viewBox="0 0 24 24" fill="none" stroke="currentColor">
    <path stroke-linecap="round" stroke-linejoin="round" d="M21.75 6.75v10.5a2.25 2.25 0 0 1-2.25 2.25h-15a2.25 2.25 0 0 1-2.25-2.25V6.75m19.5 0A2.25 2.25 0 0 0 19.5 4.5h-15a2.25 2.25 0 0 0-2.25 2.25m19.5 0v.243a2.25 2.25 0 0 1-1.07 1.916l-7.5 4.615a2.25 2.25 0 0 1-2.36 0L3.32 8.91a2.25 2.25 0 0 1-1.07-1.916V6.75"/>
  </symbol>
  <symbol id="outline-eye-slash" viewBox="0 0 24 24" fill="none" stroke="currentColor">
    <path stroke-linecap="round" stroke-linejoin="round" d="M3.98 8.223A10.477 10.477 0 0 0 1.934 12C3.226 16.338 7.244 19.5 12 19.5c.993 0 1.953-.138 2.863-.395M6.228 6.228A10.451 10.451 0 0 1 12 4.5c4.756 0 8.773 3.162 10.065 7.498a10.522 10.522 0 0 1-4.293 5.774M6.228 6.228 3 3m3.228 3.228 3.65 3.65m7.894 7.894L21 21m-3.228-3.228-3.65-3.65m0 0a3 3 0 1 0-4.243-4.243m4.242 4.242L9.88 9.88"/>
  </symbol>
  <symbol id="outline-eye" viewBox="0 0 24 24" fill="none" stroke="currentColor">
    <path stroke-linecap="round" stroke-linejoin="round" d="M2.036 12.322a1.012 1.012 0 0 1 0-.639C3.423 7.51 7.36 4.5 12 4.5c4.638 0 8.573 3.007 9.963 7.178.07.207.07.431 0 .639C20.577 16.49 16.64 19.5 12 19.5c-4.638 0-8.573-3.007-9.963-7.178Z"/>
    <path stroke-linecap="round" stroke-linejoin="round" d="M15 12a3 3 0 1 1-6 0 3 3 0 0 1 6 0Z"/>
  </symbol>
  <symbol id="outline-folder" viewBox="0 0 24 24" fill="none" stroke="currentColor">
    <path stroke-linecap="round" stroke-linejoin="round" d="M2.25 12.75V12A2.25 2.25 0 0 1 4.5 9.75h15A2.25 2.25 0 0 1 21.75 12v.75m-8.69-6.44-2.12-2.12a1.5 1.5 0 0 0-1.061-.44H4.5A2.25 2.25 0 0 0 2.25 6v12a2.25 2.25 0 0 0 2.25 2.25h15A2.25 2.25 0 0 0 21.75 18V9a2.25 2.25 0 0 0-2.25-2.25h-5.379a1.5 1.5 0 0 1-1.06-.44Z"/>
  </symbol>
  <symbol id="outline-link" viewBox="0 0 24 24" fill="none" stroke="currentColor">
    <path stroke-linecap="round" stroke-linejoin="round" d="M13.19 8.688a4.5 4.5 0 0 1 1.242 7.244l-4.5 4.5a4.5 4.5 0 0 1-6.364-6.364l1.757-1.757m13.35-.622 1.757-1.757a4.5 4.5 0 0 0-6.364-6.364l-4.5 4.5a4.5 4.5 0 0 0 1.242 7.244"/>
  </symbol>
  <symbol id="outline-magnifying-glass" viewBox="0 0 24 24" fill="none" stroke="currentColor">
    <path stroke-linecap="round" stroke-linejoin="round" d="m21 21-5.197-5.197m0 0A7.5 7.5 0 1 0 5.196 5.196a7.5 7.5 0 0 0 10.607 10.607Z"/>
  </symbol>
  <symbol id="outline-map-pin" viewBox="0 0 24 24" fill="none" stroke="currentColor">
    <path stroke-linecap="round" stroke-linejoin="round" d="M15 10.5a3 3 0 1 1-6 0 3 3 0 0 1 6 0Z"/>
    <path stroke-linecap="round" stroke-linejoin="round" d="M19.5 10.5c0 7.142-7.5 11.25-7.5 11.25S4.5 17.642 4.5 10.5a7.5 7.5 0 1 1 15 0Z"/>
  </symbol>
  <symbol id="outline-no-symbol" viewBox="0 0 24 24" fill="none" stroke="currentColor">
    <path stroke-linecap="round" stroke-linejoin="round" d="M18.364 18.364A9 9 0 0 0 5.636 5.636m12.728 12.728A9 9 0 0 1 5.636 5.636m12.728 12.728L5.636 5.636"/>
  </symbol>
  <symbol id="outline-pencil-square" viewBox="0 0 24 24" fill="none" stroke="currentColor">
    <path stroke-linecap="round" stroke-linejoin="round" d="m16.862 4.487 1.687-1.688a1.875 1.875 0 1 1 2.652 2.652L10.582 16.07a4.5 4.5 0 0 1-1.897 1.13L6 18l.8-2.685a4.5 4.5 0 0 1 1.13-1.897l8.932-8.931Zm0 0L19.5 7.125M18 14v4.75A2.25 2.25 0 0 1 15.75 21H5.25A2.25 2.25 0 0 1 3 18.75V8.25A2.25 2.25 0 0 1 5.25 6H10"/>
  </symbol>
  <symbol id="outline-photo" viewBox="0 0 24 24" fill="none" stroke="currentColor">
    <path stroke-linecap="round" stroke-linejoin="round" d="m2.25 15.75 5.159-5.159a2.25 2.25 0 0 1 3.182 0l5.159 5.159m-1.5-1.5 1.409-1.409a2.25 2.25 0 0 1 3.182 0l2.909 2.909m-18 3.75h16.5a1.5 1.5 0 0 0 1.5-1.5V6a1.5 1.5 0 0 0-1.5-1.5H3.75A1.5 1.5 0 0 0 2.25 6v12a1.5 1.5 0 0 0 1.5 1.5Zm10.5-11.25h.008v.008h-.008V8.25Zm.375 0a.375.375 0 1 1-.75 0 .375.375 0 0 1 .75 0Z"/>
  </symbol>
  <symbol id="outline-plus" viewBox="0 0 24 24" fill="none" stroke="currentColor">
    <path stroke-linecap="round" stroke-linejoin="round" d="M12 4.5v15m7.5-7.5h-15"/>
  </symbol>
  <symbol id="outline-qr-code" viewBox="0 0 24 24" fill="none" stroke="currentColor">
    <path stroke-linecap="round" stroke-linejoin="round" d="M3.75 4.875c0-.621.504-1.125 1.125-1.125h4.5c.621 0 1.125.504 1.125 1.125v4.5c0 .621-.504 1.125-1.125 1.125h-4.5A1.125 1.125 0 0 1 3.75 9.375v-4.5ZM3.75 14.625c0-.621.504-1.125 1.125-1.125h4.5c.621 0 1.125.504 1.125 1.125v4.5c0 .621-.504 1.125-1.125 1.125h-4.5a1.125 1.125 0 0 1-1.125-1.125v-4.5ZM13.5 4.875c0-.621.504-1.125 1.125-1.125h4.5c.621 0 1.125.504 1.125 1.125v4.5c0 .621-.504 1.125-1.125 1.125h-4.5A1.125 1.125 0 0 1 13.5 9.375v-4.5Z"/>
    <path stroke-linecap="round" stroke-linejoin="round" d="M6.75 6.75h.75v.75h-.75v-.75ZM6.75 16.5h.75v.75h-.75v-.75ZM16.5 6.75h.75v.75h-.75v-.75ZM13.5 13.5h.75v.75h-.75v-.75ZM13.5 19.5h.75v.75h-.75v-.75ZM19.5 13.5h.75v.75h-.75v-.75ZM19.5 19.5h.75v.75h-.75v-.75ZM16.5 16.5h.75v.75h-.75v-.75Z"/>
  </symbol>
  <symbol id="outline-question-mark-circle" viewBox="0 0 24 24" fill="none" stroke="currentColor">
    <path stroke-linecap="round" stroke-linejoin="round" d="M9.879 7.519c1.171-1.025 3.071-1.025 4.242 0 1.172 1.025 1.172 2.687 0 3.712-.203.179-.43.326-.67.442-.745.361-1.45.999-1.45 1.827v.75M21 12a9 9 0 1 1-18 0 9 9 0 0 1 18 0Zm-9 5.25h.008v.008H12v-.008Z"/>
  </symbol>
  <symbol id="outline-share" viewBox="0 0 24 24" fill="none" stroke="currentColor">
    <path stroke-linecap="round" stroke-linejoin="round" d="M7.217 10.907a2.25 2.25 0 1 0 0 2.186m0-2.186c.18.324.283.696.283 1.093s-.103.77-.283 1.093m0-2.186 9.566-5.314m-9.566 7.5 9.566 5.314m0 0a2.25 2.25 0 1 0 3.935 2.186 2.25 2.25 0 0 0-3.935-2.186Zm0-12.814a2.25 2.25 0 1 0 3.933-2.185 2.25 2.25 0 0 0-3.933 2.185Z"/>
  </symbol>
  <symbol id="outline-trash" viewBox="0 0 24 24" fill="none" stroke="currentColor">
    <path stroke-linecap="round" stroke-linejoin="round" d="m14.74 9-.346 9m-4.788 0L9.26 9m9.968-3.21c.342.052.682.107 1.022.166m-1.022-.165L18.16 19.673a2.25 2.25 0 0 1-2.244 2.077H8.084a2.25 2.25 0 0 1-2.244-2.077L4.772 5.79m14.456 0a48.108 48.108 0 0 0-3.478-.397m-12 .562c.34-.059.68-.114 1.022-.165m0 0a48.11 48.11 0 0 1 3.478-.397m7.5 0v-.916c0-1.18-.91-2.164-2.09-2.201a51.964 51.964 0 0 0-3.32 0c-1.18.037-2.09 1.022-2.09 2.201v.916m7.5 0a48.667 48.667 0 0 0-7.5 0"/>
  </symbol>
  <symbol id="outline-user-circle" viewBox="0 0 24 24" fill="none" stroke="currentColor">
    <path stroke-linecap="round" stroke-linejoin="round" d="M17.982 18.725A7.488 7.488 0 0 0 12 15.75a7.488 7.488 0 0 0-5.982 2.975m11.963 0a9 9 0 1 0-11.963 0m11.963 0A8.966 8.966 0 0 1 12 21a8.966 8.966 0 0 1-5.982-2.275M15 9.75a3 3 0 1 1-6 0 3 3 0 0 1 6 0Z"/>
  </symbol>
  <symbol id="outline-video-camera" viewBox="0 0 24 24" fill="none" stroke="currentColor">
    <path stroke-linecap="round" stroke-linejoin="round" d="m15.75 10.5 4.72-4.72a.75.75 0 0 1 1.28.53v11.38a.75.75 0 0 1-1.28.53l-4.72-4.72M4.5 18.75h9a2.25 2.25 0 0 0 2.25-2.25v-9a2.25 2.25 0 0 0-2.25-2.25h-9A2.25 2.25 0 0 0 2.25 7.5v9a2.25 2.25 0 0 0 2.25 2.25Z"/>
  </symbol>
  <symbol id="outline-viewfinder-circle" viewBox="0 0 24 24" fill="none" stroke="currentColor">
    <path stroke-linecap="round" stroke-linejoin="round" d="M7.5 3.75H6A2.25 2.25 0 0 0 3.75 6v1.5M16.5 3.75H18A2.25 2.25 0 0 1 20.25 6v1.5m0 9V18A2.25 2.25 0 0 1 18 20.25h-1.5m-9 0H6A2.25 2.25 0 0 1 3.75 18v-1.5M15 12a3 3 0 1 1-6 0 3 3 0 0 1 6 0Z"/>
  </symbol>
  <symbol id="outline-wifi" viewBox="0 0 24 24" fill="none" stroke="currentColor">
    <path stroke-linecap="round" stroke-linejoin="round" d="M8.288 15.038a5.25 5.25 0 0 1 7.424 0M5.106 11.856c3.807-3.808 9.98-3.808 13.788 0M1.924 8.674c5.565-5.565 14.587-5.565 20.152 0M12.53 18.22l-.53.53-.53-.53a.75.75 0 0 1 1.06 0Z"/>
  </symbol>
  <symbol id="outline-x-mark" viewBox="0 0 24 24" fill="none" stroke="currentColor">
    <path stroke-linecap="round" stroke-linejoin="round" d="M6 18 18 6M6 6l12 12"/>
  </symbol>
  <symbol id="solid-check-circle" viewBox="0 0 24 24" fill="currentColor">
    <path fill-rule="evenodd" d="M2.25 12c0-5.385 4.365-9.75 9.75-9.75s9.75 4.365 9.75 9.75-4.365 9.75-9.75 9.75S2.25 17.385 2.25 12Zm13.36-1.814a.75.75 0 1 0-1.22-.872l-3.236 4.53L9.53 12.22a.75.75 0 0 0-1.06 1.06l2.25 2.25a.75.75 0 0 0 1.14-.094l3.75-5.25Z" clip-rule="evenodd"/>
  </symbol>
  <symbol id="solid-exclamation-triangle" viewBox="0 0 24 24" fill="currentColor">
    <path fill-rule="evenodd" d="M9.401 3.003c1.155-2 4.043-2 5.197 0l7.355 12.748c1.154 2-.29 4.5-2.599 4.5H4.645c-2.309 0-3.752-2.5-2.598-4.5L9.4 3.003ZM12 8.25a.75.75 0 0 1 .75.75v3.75a.75.75 0 0 1-1.5 0V9a.75.75 0 0 1 .75-.75Zm0 8.25a.75.75 0 1 0 0-1.5.75.75 0 0 0 0 1.5Z" clip-rule="evenodd"/>
  </symbol>
  <symbol id="solid-x-circle" viewBox="0 0 24 24" fill="currentColor">
    <path fill-rule="evenodd" d="M12 2.25c-5.385 0-9.75 4.365-9.75 9.75s4.365 9.75 9.75 9.75 9.75-4.365 9.75-9.75S17.385 2.25 12 2.25Zm-1.72 6.97a.75.75 0 1 0-1.06 1.06L10.94 12l-1.72 1.72a.75.75 0 1 0 1.06 1.06L12 13.06l1.72 1.72a.75.75 0 1 0 1.06-1.06L13.06 12l1.72-1.72a.75.75 0 1 0-1.06-1.06L12 10.94l-1.72-1.72Z" clip-rule="evenodd"/>
  </symbol>
  <!-- replay-10s icon -->
  <!-- collaboration icon -->
  <symbol id="icon-twitter-x" viewBox="0 0 24 24" fill="currentColor">
    <path d="M18.244 2.25h3.308l-7.227 8.26 8.502 11.24H16.17l-5.214-6.817L4.99 21.75H1.68l7.73-8.835L1.254 2.25H8.08l4.713 6.231zm-1.161 17.52h1.833L7.084 4.126H5.117z"/>
  </symbol>
  <symbol id="icon-facebook" viewBox="0 0 24 24" fill="currentColor">
    <path d="M14 13.5h2.5l1-4H14v-2c0-1.03 0-2 2-2h1.5V2.14c-.326-.043-1.557-.14-2.857-.14C11.928 2 10 3.657 10 6.7v2.8H7v4h3V22h4v-8.5z"/>
  </symbol>
  <symbol id="icon-line" viewBox="0 0 135 135" fill="currentColor">
    <circle cx="67.5" cy="67.5" fill="#00b900" r="67.5"/>
    <path d="m113.28 64.01c0-20.58-20.64-37.33-46-37.33s-46 16.75-46 37.33c0 18.45 16.36 33.91 38.47 36.83 1.5.32 3.54.99 4.05 2.27.46 1.16.3 2.98.15 4.16 0 0-.54 3.25-.66 3.94-.2 1.16-.92 4.55 3.98 2.48 4.91-2.07 26.49-15.6 36.14-26.71 6.67-7.31 9.86-14.73 9.86-22.97" fill="#fff"/>
    <g fill="#00b900">
      <path d="m57.93 54.06h-3.23c-.49 0-.9.4-.9.89v20.04c0 .49.4.89.9.89h3.23c.49 0 .9-.4.9-.89v-20.04c0-.49-.4-.89-.9-.89"/>
      <path d="m80.14 54.06h-3.23c-.5 0-.9.4-.9.89v11.91l-9.19-12.4s-.05-.06-.07-.09-.04-.04-.05-.06c0 0-.01-.01-.02-.02-.02-.01-.03-.03-.05-.04 0 0-.02-.01-.02-.02-.02-.01-.03-.02-.05-.03 0 0-.02-.01-.03-.02-.02 0-.03-.02-.05-.03 0 0-.02 0-.03-.01-.02 0-.03-.02-.05-.02-.01 0-.02 0-.03-.01-.02 0-.03-.01-.05-.02-.01 0-.02 0-.03 0-.02 0-.03 0-.05-.01-.01 0-.03 0-.04 0-.02 0-.03 0-.05 0s-.03 0-.05 0c-.01 0-.02 0-.03 0h-3.23c-.49 0-.9.4-.9.89v20.04c0 .49.4.89.9.89h3.23c.5 0 .9-.4.9-.89v-11.9l9.2 12.42c.06.09.14.16.23.22l.06.03s.02 0 .03.01c.01 0 .03.01.04.02.01 0 .03.01.04.02 0 0 .02 0 .03.01.02 0 .04.01.06.02h.01c.07.02.15.03.23.03h3.23c.5 0 .9-.4.9-.89v-20.04c0-.49-.4-.89-.9-.89"/>
      <path d="m50.16 70.88h-8.77v-15.92c0-.49-.4-.9-.9-.9h-3.23c-.49 0-.9.4-.9.9v20.04c0 .24.1.46.25.62 0 0 0 0 .01.01 0 0 0 0 .01.01.16.15.38.25.62.25h12.89c.49 0 .89-.4.89-.9v-3.23c0-.49-.4-.9-.89-.9"/>
      <path d="m97.96 59.08c.49 0 .89-.4.89-.9v-3.23c0-.5-.4-.9-.89-.9h-12.89c-.24 0-.46.1-.62.25 0 0 0 0-.01 0 0 0-.01.01-.01.02-.15.16-.25.38-.25.62v20.04c0 .24.1.46.25.62 0 0 0 0 .01.01 0 0 0 0 .01.01.16.15.38.25.62.25h12.89c.49 0 .89-.4.89-.9v-3.23c0-.49-.4-.9-.89-.9h-8.77v-3.39h8.77c.49 0 .89-.4.89-.9v-3.23c0-.5-.4-.9-.89-.9h-8.77v-3.39h8.77z"/>
    </g>
  </symbol>
  <defs>
    <linearGradient id="insta-gradient" x1="0%" y1="100%" x2="100%" y2="0%">
      <stop offset="0%" style="stop-color:#f09433;stop-opacity:1"/>
      <stop offset="25%" style="stop-color:#e6683c;stop-opacity:1"/>
      <stop offset="50%" style="stop-color:#dc2743;stop-opacity:1"/>
      <stop offset="75%" style="stop-color:#cc2366;stop-opacity:1"/>
      <stop offset="100%" style="stop-color:#bc1888;stop-opacity:1"/>
    </linearGradient>
  </defs>
  <!-- Additional icons for LSEED -->
  <!-- animals / Phosphor Icons / MIT -->
  <!-- natural / Phosphor Icons / MIT -->
</svg>
